<?xml version="1.0" standalone="no"?>
<!DOCTYPE svg PUBLIC "-//W3C//DTD SVG 20010904//EN"
 "http://www.w3.org/TR/2001/REC-SVG-20010904/DTD/svg10.dtd">
<svg version="1.0" xmlns="http://www.w3.org/2000/svg"
 width="275.000000pt" height="255.000000pt" viewBox="0 0 275.000000 255.000000"
 preserveAspectRatio="xMidYMid meet">

<g transform="translate(0.000000,255.000000) scale(0.100000,-0.100000)"
fill="#000000" stroke="none">
<path d="M0 1275 l0 -1275 1375 0 1375 0 0 1275 0 1275 -1375 0 -1375 0 0
-1275z m2450 -45 l0 -1110 -1110 0 -1110 0 0 1110 0 1110 1110 0 1110 0 0
-1110z"/>
<path d="M270 1230 l0 -1070 1070 0 1070 0 0 1070 0 1070 -1070 0 -1070 0 0
-1070z m1825 -186 c1 -17 9 -50 19 -72 l19 -41 26 20 c14 11 28 30 31 42 7 27
38 35 46 12 4 -8 0 -23 -8 -33 -17 -19 -38 -96 -38 -136 l0 -26 -120 0 -120 0
0 31 c0 42 -21 121 -36 137 -17 17 -7 42 17 42 17 0 23 -10 21 -31 -1 -3 12
-19 28 -34 l28 -27 21 48 c12 26 21 55 20 63 -3 35 2 42 24 39 17 -2 22 -10
22 -34z m145 -354 c0 -20 -7 -20 -715 -20 -708 0 -715 0 -715 20 0 20 7 20
715 20 708 0 715 0 715 -20z m-266 -143 c-3 -9 -17 -17 -30 -17 -32 0 -34 37
-1 42 28 5 39 -4 31 -25z m-1339 11 c27 -12 29 -16 16 -37 -6 -10 -13 -11 -29
-2 -49 26 -121 1 -93 -33 7 -8 27 -18 44 -22 50 -10 84 -31 90 -55 7 -26 -15
-74 -38 -83 -41 -16 -155 1 -155 23 1 22 19 32 38 22 29 -16 87 -14 102 4 17
20 5 33 -43 46 -67 17 -87 34 -87 74 0 48 31 75 86 75 24 0 55 -5 69 -12z
m645 -8 c0 -15 -7 -20 -25 -20 -18 0 -25 5 -25 20 0 15 7 20 25 20 18 0 25 -5
25 -20z m-431 -76 c12 -15 21 -37 21 -50 0 -23 -4 -24 -60 -24 -59 0 -60 -1
-49 -21 9 -18 18 -21 54 -16 31 3 45 1 49 -9 7 -19 -25 -34 -72 -34 -78 0
-117 97 -62 156 33 34 91 34 119 -2z m199 13 c9 -7 16 -7 24 1 7 7 27 12 44
12 48 0 64 -29 64 -112 0 -66 -1 -68 -25 -68 -23 0 -24 3 -27 67 -3 57 -6 68
-22 71 -27 5 -36 -15 -36 -80 0 -55 -1 -58 -25 -58 -23 0 -24 3 -27 67 -3 57
-6 68 -22 71 -27 5 -36 -15 -36 -80 0 -55 -1 -58 -25 -58 -25 0 -25 1 -25 89
l0 89 63 0 c34 0 68 -5 75 -11z m232 -77 c0 -89 0 -90 -25 -90 -25 0 -25 1
-25 90 0 89 0 90 25 90 25 0 25 -1 25 -90z m100 78 c0 -9 3 -9 12 0 7 7 27 12
44 12 48 0 64 -29 64 -112 0 -66 -1 -68 -25 -68 -24 0 -25 2 -25 65 0 52 -4
67 -16 72 -33 12 -49 -11 -52 -76 -3 -57 -4 -61 -27 -61 -25 0 -25 1 -25 90 0
89 0 90 25 90 14 0 25 -5 25 -12z m340 -78 l0 -87 -62 -1 c-34 -1 -69 3 -79 9
-41 22 -42 135 -1 158 9 6 45 10 80 9 l62 -1 0 -87z m100 78 c0 -9 3 -9 12 0
20 20 58 15 58 -8 0 -15 -7 -20 -25 -20 -32 0 -45 -26 -45 -89 0 -44 -3 -51
-20 -51 -12 0 -20 7 -20 18 0 9 -2 50 -4 90 -3 70 -3 72 20 72 13 0 24 -5 24
-12z m150 -78 c0 -89 0 -90 -25 -90 -25 0 -25 1 -25 90 0 89 0 90 25 90 25 0
25 -1 25 -90z m200 65 c16 -17 23 -36 23 -65 0 -57 -32 -90 -87 -90 -56 0 -86
30 -86 87 0 33 6 50 25 68 33 34 93 34 125 0z"/>
<path d="M2060 1060 c0 -5 5 -10 10 -10 6 0 10 5 10 10 0 6 -4 10 -10 10 -5 0
-10 -4 -10 -10z"/>
<path d="M2047 977 c-30 -73 -33 -75 -61 -48 -31 29 -42 23 -29 -16 l10 -28
104 -3 105 -3 11 41 10 40 -33 -25 c-18 -14 -35 -25 -37 -25 -3 0 -15 25 -27
55 -12 30 -25 55 -29 55 -3 0 -14 -19 -24 -43z"/>
<path d="M1920 1000 c0 -5 5 -10 10 -10 6 0 10 5 10 10 0 6 -4 10 -10 10 -5 0
-10 -4 -10 -10z"/>
<path d="M2205 1000 c-3 -5 -1 -10 4 -10 6 0 11 5 11 10 0 6 -2 10 -4 10 -3 0
-8 -4 -11 -10z"/>
<path d="M1967 864 c-3 -3 -3 -12 0 -20 4 -11 29 -14 109 -14 97 0 104 1 104
20 0 19 -7 20 -103 20 -57 0 -106 -3 -110 -6z"/>
<path d="M765 450 c-18 -20 -17 -20 23 -20 47 0 49 2 26 24 -20 21 -27 20 -49
-4z"/>
<path d="M1598 436 c-16 -37 3 -76 37 -76 51 0 53 92 2 98 -21 3 -30 -3 -39
-22z"/>
<path d="M2070 435 c-14 -37 3 -75 34 -75 37 0 51 37 32 86 -9 25 -55 17 -66
-11z"/>
</g>
</svg>
